<svg xmlns="http://www.w3.org/2000/svg" xmlns:xlink="http://www.w3.org/1999/xlink" viewBox="0 0 50 50">
	<style> g:not(:target) { display: none; }</style>
	<g id="arrow">
		<polygon points="29.545,31.864 29.545,0 20.455,0 20.455,31.864 6.818,31.864 25,50 43.182,31.864"/>
	</g>
	<g id="arrow-inside">
		<path d="M44.444,0H5.556C2.486,0,0,2.486,0,5.556v11.111h5.556V5.556h38.889v38.889H5.556V33.333H0v11.111
		C0,47.514,2.486,50,5.556,50h38.889C47.514,50,50,47.514,50,44.444V5.556C50,2.486,47.514,0,44.444,0z M19.681,34.958l3.93,3.931
		L37.5,25L23.611,11.111l-3.93,3.931l7.18,7.181H0v5.555h26.861L19.681,34.958z"/>
	</g>
	<g id="busket">
		<path d="M8.333,44.444c0,3.07,2.486,5.556,5.556,5.556h22.222c3.069,0,5.555-2.486,5.555-5.556V11.111H8.333V44.444z M34.722,2.778 L31.944,0H18.056l-2.778,2.778H5.556v5.555h38.888V2.778H34.722z"/>
	</g>
	<g id="calendar">
		<path d="M25,27.5h12.5V40H25V27.5z M42.5,5H40V0h-5v5H15V0h-5v5H7.5c-2.762,0-4.975,2.237-4.975,5L2.5,45c0,2.762,2.237,5,5,5h35 c2.762,0,5-2.237,5-5V10C47.5,7.237,45.262,5,42.5,5z M42.5,45h-35V17.5h35V45z"/>
	</g>
	<g id="check">
		<path d="M44.002,6.695L19.387,31.31L5.998,17.921L0,23.919l19.387,19.387L50,12.692L44.002,6.695z"/>
	</g>
	<g id="docs">
		<path d="M31.522,0.956v12.088H43.61L31.522,0.956z M29.891,16.305c-0.9,0-1.63-0.73-1.63-1.63V0H7.065
		c-0.9,0-1.63,0.73-1.63,1.63V48.37c0,0.9,0.73,1.63,1.63,1.63h35.869c0.9,0,1.63-0.73,1.63-1.63V16.305H29.891z M26.63,40.218
		H13.587c-0.9,0-1.63-0.73-1.63-1.63s0.73-1.63,1.63-1.63H26.63c0.9,0,1.63,0.73,1.63,1.63S27.531,40.218,26.63,40.218z
		 M36.413,33.696H13.587c-0.9,0-1.63-0.73-1.63-1.63s0.73-1.63,1.63-1.63h22.826c0.9,0,1.63,0.73,1.63,1.63
		C38.044,32.966,37.313,33.696,36.413,33.696z M36.413,27.174H13.587c-0.9,0-1.63-0.73-1.63-1.63c0-0.9,0.73-1.63,1.63-1.63h22.826
		c0.9,0,1.63,0.73,1.63,1.63C38.043,26.444,37.313,27.174,36.413,27.174z"/>
	</g>
	<g id="euro">
		<path d="M33.333,43.056c-6.958,0-13-3.944-16.014-9.722h16.014v-5.556H15.514c-0.139-0.903-0.236-1.833-0.236-2.778
		s0.097-1.875,0.236-2.778h17.819v-5.556H17.319c3.014-5.778,9.042-9.722,16.014-9.722c4.486,0,8.583,1.639,11.736,4.347L50,6.389
		C45.583,2.431,39.736,0,33.333,0C22.458,0,13.222,6.958,9.792,16.667H0v5.556h8.5C8.389,23.139,8.333,24.056,8.333,25
		s0.056,1.861,0.167,2.778H0v5.556h9.792C13.222,43.042,22.458,50,33.333,50c6.403,0,12.25-2.431,16.667-6.389l-4.931-4.917
		C41.917,41.403,37.819,43.056,33.333,43.056z"/>
	</g>
	<g id="eye">
		<path d="M25,17.849c-3.761,0-6.818,3.057-6.818,6.818s3.057,6.818,6.818,6.818s6.818-3.057,6.818-6.818S28.761,17.849,25,17.849z
		M25,7.622c-11.364,0-21.068,7.068-25,17.045c3.932,9.977,13.636,17.045,25,17.045c11.375,0,21.068-7.068,25-17.045
		C46.068,14.69,36.375,7.622,25,7.622z M25,36.03c-6.273,0-11.364-5.091-11.364-11.364S18.727,13.303,25,13.303
		s11.364,5.091,11.364,11.364S31.273,36.03,25,36.03z"/>
	</g>
	<g id="gear">
		<path d="M48.844,31.575l-5.275-4.138c0.1-0.8,0.175-1.613,0.175-2.438s-0.075-1.637-0.175-2.438l5.288-4.138
		c0.475-0.375,0.613-1.05,0.3-1.6l-5-8.663c-0.313-0.538-0.962-0.763-1.525-0.538l-6.225,2.513c-1.288-0.988-2.7-1.825-4.225-2.462
		L31.244,1.05C31.131,0.463,30.619,0,29.994,0h-10c-0.625,0-1.138,0.463-1.238,1.05l-0.938,6.625
		c-1.525,0.638-2.938,1.463-4.225,2.462L7.369,7.625c-0.563-0.212-1.213,0-1.525,0.538l-5,8.663c-0.313,0.538-0.175,1.213,0.3,1.6
		l5.275,4.138c-0.1,0.8-0.175,1.613-0.175,2.438s0.075,1.637,0.175,2.438l-5.275,4.138c-0.475,0.375-0.613,1.05-0.3,1.6l5,8.663
		c0.313,0.538,0.962,0.763,1.525,0.538l6.225-2.513c1.288,0.988,2.7,1.825,4.225,2.462l0.938,6.625c0.1,0.587,0.613,1.05,1.238,1.05
		h10c0.625,0,1.138-0.463,1.238-1.05l0.938-6.625c1.525-0.638,2.938-1.463,4.225-2.462l6.225,2.513c0.563,0.212,1.213,0,1.525-0.538
		l5-8.663C49.456,32.638,49.319,31.963,48.844,31.575z M24.994,33.75c-4.838,0-8.75-3.913-8.75-8.75s3.913-8.75,8.75-8.75
		s8.75,3.913,8.75,8.75S29.831,33.75,24.994,33.75z"/>
	</g>
	<g id="grid">
		<path d="M27.778,0H50v16.667H27.778V0z M0,0h22.222v27.778H0V0z M0,33.333h22.222V50H0V33.333z M27.778,22.222H50V50 H27.778V22.222z"/>
	</g>
	<g id="list">
		<path d="M5.172,6.034C2.316,6.034,0,8.35,0,11.207s2.316,5.172,5.172,5.172c2.857,0,5.172-2.316,5.172-5.172
		S8.029,6.034,5.172,6.034z M5.172,19.828C2.316,19.828,0,22.143,0,25c0,2.857,2.316,5.172,5.172,5.172
		c2.857,0,5.172-2.316,5.172-5.172C10.345,22.143,8.029,19.828,5.172,19.828z M5.172,33.621C2.316,33.621,0,35.936,0,38.793
		c0,2.857,2.316,5.172,5.172,5.172c2.857,0,5.172-2.316,5.172-5.172C10.345,35.936,8.029,33.621,5.172,33.621z M18.966,14.655h27.586
		c1.905,0,3.448-1.543,3.448-3.448s-1.543-3.448-3.448-3.448H18.966c-1.905,0-3.448,1.543-3.448,3.448S17.06,14.655,18.966,14.655z
		 M46.552,21.552H18.966c-1.905,0-3.448,1.543-3.448,3.448s1.543,3.448,3.448,3.448h27.586C48.457,28.448,50,26.905,50,25
		S48.457,21.552,46.552,21.552z M46.552,35.345H18.966c-1.905,0-3.448,1.543-3.448,3.448s1.543,3.448,3.448,3.448h27.586
		c1.905,0,3.448-1.543,3.448-3.448S48.457,35.345,46.552,35.345z"/>
	</g>
	<g id="power">
		<path d="M41.208,6.014l-3.931,3.931c4.361,3.569,7.167,8.972,7.167,15.056c0,10.736-8.708,19.444-19.444,19.444
		S5.556,35.736,5.556,25c0-6.083,2.806-11.486,7.167-15.056l-3.931-3.93C3.431,10.597,0,17.389,0,25c0,13.806,11.194,25,25,25
		s25-11.194,25-25C50,17.389,46.569,10.597,41.208,6.014z M22.222,0h5.556v27.778h-5.556V0z"/>
	</g>
	<g id="puzzle">
		<path d="M44.048,23.809h-3.571v-9.524c0-2.631-2.131-4.762-4.762-4.762h-9.524V5.952C26.191,2.667,23.524,0,20.238,0
		s-5.952,2.667-5.952,5.952v3.571H4.762c-2.631,0-4.738,2.131-4.738,4.762l-0.012,9.048h3.559c3.548,0,6.429,2.881,6.429,6.429
		s-2.881,6.429-6.429,6.429H0.012L0,45.238C0,47.869,2.131,50,4.762,50h9.048v-3.571c0-3.548,2.881-6.429,6.429-6.429
		s6.429,2.881,6.429,6.429V50h9.048c2.631,0,4.762-2.131,4.762-4.762v-9.524h3.571c3.286,0,5.952-2.667,5.952-5.952
		S47.333,23.809,44.048,23.809z"/>
	</g>
	<g id="search">
		<path d="M35.735,31.447h-2.273l-0.786-0.786c2.802-3.245,4.488-7.461,4.488-12.078C37.164,8.319,28.845,0,18.582,0
		S0,8.319,0,18.582s8.319,18.582,18.582,18.582c4.617,0,8.834-1.687,12.078-4.474l0.786,0.786v2.258L45.74,50L50,45.74
		L35.735,31.447z M18.582,31.447c-7.104,0-12.864-5.76-12.864-12.864s5.76-12.864,12.864-12.864s12.864,5.76,12.864,12.864
		S25.686,31.447,18.582,31.447z"/>
	</g>
	<g id="tablet">
		<path d="M42.5,5H32.038C31.012,2.1,28.262,0,25,0s-6.013,2.1-7.037,5H7.5c-2.762,0-5,2.237-5,5v35c0,2.762,2.237,5,5,5
		h35c2.762,0,5-2.237,5-5V10C47.5,7.237,45.262,5,42.5,5z M25,5c1.375,0,2.5,1.112,2.5,2.5S26.375,10,25,10s-2.5-1.112-2.5-2.5
		S23.625,5,25,5z M30,40H12.5v-5H30V40z M37.5,30h-25v-5h25V30z M37.5,20h-25v-5h25V20z"/>
	</g>
	<g id="update">
		<path d="M24.996,6.571C14.82,6.571,6.568,14.824,6.568,25H0.425l8.191,8.191L16.806,25h-6.143c0-7.914,6.419-14.334,14.334-14.334
		S39.33,17.086,39.33,25s-6.419,14.334-14.334,14.334c-3.102,0-5.959-0.993-8.314-2.672L13.785,39.6
		c3.112,2.396,6.993,3.829,11.211,3.829c10.177,0,18.429-8.253,18.429-18.429S35.173,6.571,24.996,6.571z M29.091,25
		c0-2.263-1.833-4.095-4.095-4.095S20.901,22.737,20.901,25s1.833,4.095,4.095,4.095S29.091,27.263,29.091,25z"/>
	</g>
</svg>
